<svg id="Multicolor" xmlns="http://www.w3.org/2000/svg" viewBox="0 0 100 112"><defs><style>.cls-1,.cls-6{fill:#e8f4fa;}.cls-2,.cls-9{fill:#fff;}.cls-3{fill:none;}.cls-11,.cls-12,.cls-13,.cls-14,.cls-15,.cls-16,.cls-17,.cls-18,.cls-19,.cls-3,.cls-6,.cls-9{stroke:#191816;stroke-linejoin:round;}.cls-11,.cls-12,.cls-13,.cls-14,.cls-15,.cls-16,.cls-17,.cls-18,.cls-3,.cls-6,.cls-9{stroke-linecap:round;}.cls-4{fill:#c0dceb;}.cls-5{fill:#adc4d9;}.cls-7{fill:#00b8f0;}.cls-8{fill:#4acfff;}.cls-10{fill:#191816;opacity:0.15;}.cls-11{fill:#00dfeb;}.cls-12{fill:#6dd627;}.cls-13{fill:#ffe500;}.cls-14{fill:#a6fbff;}.cls-15{fill:#c8ffa1;}.cls-16{fill:#fff48c;}.cls-17{fill:#ff6242;}.cls-18{fill:#ffa694;}.cls-19{fill:#b8ecff;}</style></defs><title>11- html-programming-code-book</title><g id="Background"><g id="New_Symbol_28-5" data-name="New Symbol 28"><path class="cls-1" d="M90.34,56A40,40,0,1,0,13.9,72.5H86.77A39.7,39.7,0,0,0,90.34,56Z"/><path class="cls-2" d="M13.9,72.5a40,40,0,0,0,72.87,0Z"/><line class="cls-3" x1="10.84" y1="72.5" x2="88.84" y2="72.5"/><line class="cls-3" x1="6.34" y1="72.5" x2="8.84" y2="72.5"/><line class="cls-3" x1="90.84" y1="72.5" x2="93.34" y2="72.5"/></g></g><g id="Scene"><rect class="cls-4" x="37.14" y="65.63" width="6.9" height="4.14"/><rect class="cls-5" x="37.14" y="65.63" width="6.9" height="2.07"/><rect class="cls-3" x="37.14" y="65.63" width="6.9" height="4.14"/><path class="cls-6" d="M49.56,72.53H31.62a2.77,2.77,0,0,1,2.76-2.76H46.8A2.76,2.76,0,0,1,49.56,72.53Z"/><path class="cls-7" d="M59.22,33.89H22a3.46,3.46,0,0,0-3.45,3.45V60.11H62.67V37.34A3.45,3.45,0,0,0,59.22,33.89Z"/><path class="cls-8" d="M45.09,33.89H22a3.46,3.46,0,0,0-3.45,3.45V60.47Z"/><path class="cls-3" d="M59.22,33.89H22a3.46,3.46,0,0,0-3.45,3.45V60.11H62.67V37.34A3.45,3.45,0,0,0,59.22,33.89Z"/><path class="cls-9" d="M59.22,65.63a3.44,3.44,0,0,0,3.45-3.45V60.11H18.51v2.07A3.45,3.45,0,0,0,22,65.63Z"/><ellipse class="cls-10" cx="70.32" cy="80.3" rx="13.8" ry="1.73"/><rect class="cls-11" x="57.15" y="57.24" width="5.52" height="22.08" rx="0.5" ry="0.5"/><rect class="cls-12" x="62.67" y="60" width="5.52" height="19.32" rx="0.5" ry="0.5"/><rect class="cls-13" x="68.19" y="57.24" width="5.52" height="22.08" rx="0.5" ry="0.5"/><rect class="cls-14" x="57.15" y="61.38" width="5.52" height="2.76"/><rect class="cls-15" x="62.67" y="64.14" width="5.52" height="2.76"/><rect class="cls-16" x="68.19" y="61.38" width="5.52" height="2.76"/><rect class="cls-17" x="76.14" y="57.02" width="5.52" height="22.08" rx="0.5" ry="0.5" transform="translate(-13.94 20.74) rotate(-13.77)"/><rect class="cls-18" x="74.83" y="61.32" width="5.52" height="2.76" transform="translate(-12.7 20.28) rotate(-13.78)"/><path class="cls-19" d="M32.18,53.12a1.52,1.52,0,0,1-1-.38l-5.25-4.59a1.53,1.53,0,0,1,0-2.3l5.25-4.59a1.53,1.53,0,0,1,2,2.31L29.26,47l3.93,3.44a1.53,1.53,0,0,1-1,2.68Z"/><path class="cls-19" d="M49,53.12a1.53,1.53,0,0,1-1-2.68L51.92,47,48,43.57a1.53,1.53,0,0,1,2-2.31l5.24,4.59a1.53,1.53,0,0,1,0,2.3L50,52.74A1.55,1.55,0,0,1,49,53.12Z"/><path class="cls-19" d="M37.64,53.88a1.49,1.49,0,0,1-.76-.2,1.53,1.53,0,0,1-.56-2.09l6.11-10.7a1.53,1.53,0,0,1,2.66,1.52L39,53.11A1.54,1.54,0,0,1,37.64,53.88Z"/><circle class="cls-3" cx="40.59" cy="62.87" r="0.57"/></g></svg>