<svg id="Multicolor" xmlns="http://www.w3.org/2000/svg" xmlns:xlink="http://www.w3.org/1999/xlink" viewBox="0 0 100 112"><defs><style>.cls-1,.cls-20,.cls-21,.cls-28,.cls-7{fill:none;}.cls-2{fill:#e8f4fa;}.cls-3{fill:#c0dceb;}.cls-11,.cls-4{fill:#f0f0f0;}.cls-5{fill:#a86c4d;}.cls-6{fill:#de926a;}.cls-11,.cls-12,.cls-13,.cls-18,.cls-25,.cls-28,.cls-30,.cls-7,.cls-8{stroke:#191816;}.cls-11,.cls-12,.cls-13,.cls-18,.cls-19,.cls-20,.cls-21,.cls-25,.cls-30,.cls-7,.cls-8{stroke-linecap:round;stroke-linejoin:round;}.cls-8{fill:#ffda8f;}.cls-9{fill:#fff;}.cls-10{fill:#ffbe3d;}.cls-12{fill:#bf8df2;}.cls-13{fill:#d18660;}.cls-14{fill:#191816;}.cls-15{fill:#bd704a;}.cls-16{fill:#614b44;}.cls-17{fill:#947063;}.cls-18{fill:#bdbec0;}.cls-19,.cls-23{fill:#ffb700;}.cls-19{stroke:#48cf3e;}.cls-20{stroke:#00aed9;}.cls-21{stroke:#ff4064;}.cls-22{fill:#ff4064;}.cls-24{clip-path:url(#clip-path);}.cls-25{fill:#dea47a;}.cls-26{fill:#656769;}.cls-27{fill:#525252;}.cls-28{stroke-miterlimit:10;}.cls-29,.cls-30{fill:#daedf7;}</style><clipPath id="clip-path"><circle class="cls-1" cx="50" cy="56" r="40"/></clipPath></defs><title>14- team-discussion-1</title><g id="Background"><path class="cls-2" d="M90,56A40,40,0,1,0,13.56,72.5H86.44A39.85,39.85,0,0,0,90,56Z"/><path class="cls-3" d="M13.56,72.5a40,40,0,0,0,72.88,0Z"/><circle class="cls-1" cx="50" cy="56" r="40"/></g><g id="Scene"><path class="cls-4" d="M64,58.33a9.78,9.78,0,1,1,19.55,0v1.72h-4v9.78H66.91v-8H64Z"/><circle class="cls-5" cx="80.71" cy="30.73" r="3.45"/><path class="cls-6" d="M80.71,27.28A3.43,3.43,0,0,1,84,29.77a3.43,3.43,0,0,0-5.6,2.68,3.31,3.31,0,0,0,.15.95,3.43,3.43,0,0,1,2.15-6.12Z"/><circle class="cls-7" cx="80.71" cy="30.73" r="3.45"/><path class="cls-8" d="M73.24,30.15a6.9,6.9,0,0,1,6.9,6.9V38A1.41,1.41,0,0,1,80,40.76a6.9,6.9,0,0,1-13.65-1.41v-2.3A6.9,6.9,0,0,1,73.24,30.15Z"/><path class="cls-9" d="M73.81,48.55a9.78,9.78,0,0,1,9.78,9.78v3.45a9.78,9.78,0,1,0-19.55,0V58.33A9.77,9.77,0,0,1,73.81,48.55Z"/><path class="cls-10" d="M75.54,40.21a.86.86,0,1,0,.86-.86A.86.86,0,0,0,75.54,40.21Z"/><path class="cls-7" d="M64,58.33a9.78,9.78,0,1,1,19.55,0v1.72h-4v9.78H66.91v-8H64Z"/><path class="cls-7" d="M73.81,42.28a3.1,3.1,0,0,1-3.45,0"/><line class="cls-7" x1="79.56" y1="57.75" x2="79.56" y2="60.05"/><path class="cls-11" d="M68.64,52.58l-.58,1.72,5.18,4-3.3-9a9.61,9.61,0,0,0-3,2l0,0Z"/><path class="cls-11" d="M78.41,54.3l-.57-1.72,1.72-1.15-.91-1.59a9.64,9.64,0,0,0-2-.86l-3.44,9.35Z"/><path class="cls-8" d="M69.94,49.36a9.61,9.61,0,0,1,3.87-.81,9.73,9.73,0,0,1,2.87.43l-1.33,3.6H71.12Z"/><polygon class="cls-12" points="75.35 52.58 73.24 58.33 71.12 52.58 75.35 52.58"/><line class="cls-7" x1="73.24" y1="58.33" x2="73.24" y2="69.83"/><path class="cls-8" d="M79.56,60.05v2a1.43,1.43,0,0,1-1.44,1.44H70.65a2,2,0,0,0,0,4h7.47a5.48,5.48,0,0,0,5.47-5.47v-2Z"/><path class="cls-5" d="M80.14,38c-1.73-1.49-2.3-4.94-2.3-4.94s-4,2.87-11.5,4v1.83A8,8,0,1,1,81.23,39,1.44,1.44,0,0,0,80.14,38Z"/><path class="cls-6" d="M73.81,30.47a8,8,0,0,0-7.93,6.74,8,8,0,1,1,15.87,0A8.05,8.05,0,0,0,73.81,30.47Z"/><path class="cls-7" d="M80.14,38c-1.73-1.49-2.3-4.94-2.3-4.94s-4,2.87-11.5,4v1.83A8,8,0,1,1,81.23,39,1.44,1.44,0,0,0,80.14,38Z"/><path class="cls-7" d="M68.7,37.91a1,1,0,0,1,1.38,0"/><path class="cls-7" d="M74.22,37.91a1,1,0,0,1,1.38,0"/><path class="cls-13" d="M34.16,73a2,2,0,0,0,4,0V61.2h-4Z"/><path class="cls-13" d="M27.39,30.15a6.9,6.9,0,0,0-6.9,6.9V38a1.41,1.41,0,0,0,.14,2.79,6.9,6.9,0,0,0,13.66-1.41v-2.3A6.9,6.9,0,0,0,27.39,30.15Z"/><path class="cls-4" d="M16.34,59.48a10.93,10.93,0,1,1,21.85,0V61.2H35.31v8.63h-15V61.2h-4Z"/><path class="cls-9" d="M27.26,48.55A10.92,10.92,0,0,0,16.34,59.48V61.2h.13a10.93,10.93,0,0,1,21.58,0h.14V59.48A10.93,10.93,0,0,0,27.26,48.55Z"/><path class="cls-7" d="M16.34,59.48a10.93,10.93,0,1,1,21.85,0V61.2H35.31v8.63h-15V61.2h-4Z"/><path class="cls-14" d="M26.52,37.05a.87.87,0,1,0,.87.86.87.87,0,0,0-.87-.86Z"/><path class="cls-14" d="M31.12,37.05a.87.87,0,1,0,.87.86.87.87,0,0,0-.87-.86Z"/><path class="cls-15" d="M25.09,40.21a.87.87,0,1,1-.87-.86A.87.87,0,0,1,25.09,40.21Z"/><path class="cls-7" d="M26.81,42.28a3.13,3.13,0,0,0,3.45,0"/><path class="cls-16" d="M34.86,35.33a7.48,7.48,0,1,0-14.95,0v2.3a6,6,0,0,0,4-3.45C27.16,36.34,31.41,35.9,34.86,35.33Z"/><path class="cls-17" d="M27.39,30.73a7.48,7.48,0,0,1,6.93,4.68l.54-.08a7.48,7.48,0,1,0-14.95,0v2.3h0A7.47,7.47,0,0,1,27.39,30.73Z"/><path class="cls-7" d="M34.86,35.33a7.48,7.48,0,1,0-14.95,0v2.3a6,6,0,0,0,4-3.45C27.16,36.34,31.41,35.9,34.86,35.33Z"/><path class="cls-7" d="M22.79,33a3.65,3.65,0,0,0,1.15,1.15"/><path class="cls-13" d="M16.34,73a2,2,0,1,0,4,0V61.2h-4Z"/><line class="cls-7" x1="20.36" y1="61.2" x2="20.36" y2="57.75"/><line class="cls-7" x1="35.31" y1="61.2" x2="35.31" y2="57.75"/><path class="cls-13" d="M27.26,48.55a10.89,10.89,0,0,0-3.39.55l4,3.48,4-3A10.77,10.77,0,0,0,27.26,48.55Z"/><path class="cls-18" d="M27.84,52.58l-4-3.48,0,3.44a1.15,1.15,0,0,0,1.6,1.07Z"/><path class="cls-18" d="M27.84,52.58l4-3,0,3a1.12,1.12,0,0,1-.51,1,1.17,1.17,0,0,1-1.09.1Z"/><line class="cls-7" x1="27.84" y1="52.58" x2="27.84" y2="69.83"/><line class="cls-19" x1="68.28" y1="20.26" x2="68.28" y2="19.44"/><line class="cls-19" x1="70.02" y1="20.98" x2="70.6" y2="20.4"/><line class="cls-19" x1="70.74" y1="22.72" x2="71.56" y2="22.72"/><line class="cls-19" x1="70.02" y1="24.46" x2="70.6" y2="25.04"/><line class="cls-19" x1="68.28" y1="25.18" x2="68.28" y2="26"/><line class="cls-19" x1="66.54" y1="24.46" x2="65.96" y2="25.04"/><line class="cls-19" x1="65.82" y1="22.72" x2="65" y2="22.72"/><line class="cls-19" x1="66.54" y1="20.98" x2="65.96" y2="20.4"/><line class="cls-20" x1="91.28" y1="37.75" x2="91.28" y2="33.32"/><line class="cls-20" x1="89.07" y1="35.53" x2="93.5" y2="35.53"/><line class="cls-20" x1="53.56" y1="38.69" x2="53.56" y2="35.82"/><line class="cls-20" x1="52.12" y1="37.26" x2="55" y2="37.26"/><line class="cls-20" x1="85.56" y1="55.32" x2="85.56" y2="52.44"/><line class="cls-20" x1="84.12" y1="53.88" x2="87" y2="53.88"/><path class="cls-21" d="M85.09,47a2.59,2.59,0,1,1,2.59-2.58A2.58,2.58,0,0,1,85.09,47Z"/><path class="cls-22" d="M85.79,23.17c0-.58.09-.78.87-.93,1.89-.38,2.78-1.4,2.78-2.78a2.78,2.78,0,0,0-5.34-.74c-.16.74-.35.92-.87.92s-.73-.4-.73-.85c0-2,2-3.29,4.25-3.29,2.6,0,4.42,1.6,4.42,3.91,0,2.72-1.8,3.74-3.78,4.23V26c0,.66-.29,1-.8,1s-.8-.36-.8-1Zm.8,6.38a1,1,0,1,1-1,1A1,1,0,0,1,86.59,29.55Z"/><path class="cls-23" d="M56.09,26.85a.75.75,0,1,1-1.5,0V24.92c0-.76,0-.9,1.19-1.14a1.74,1.74,0,0,0,1.57-1.84,1.83,1.83,0,0,0-2-1.87,1.86,1.86,0,0,0-2,1.39c-.16.45-.36.57-.67.57a.73.73,0,0,1-.73-.79c.07-1.5,1.74-2.57,3.32-2.57C57.38,18.67,59,20,59,21.8a3.28,3.28,0,0,1-2.86,3.34Zm-.75,2.41a.87.87,0,1,1-.87.87A.88.88,0,0,1,55.34,29.26Z"/><g class="cls-24"><rect class="cls-25" x="13.2" y="65.48" width="73.6" height="38.52" rx="3" ry="3"/><rect class="cls-26" x="16.65" y="68.93" width="66.7" height="35.07" rx="2" ry="2"/><path class="cls-27" d="M83.35,73.53v-2.3a2.3,2.3,0,0,0-2.3-2.3H19a2.3,2.3,0,0,0-2.3,2.3v2.3Z"/><rect class="cls-28" x="16.65" y="68.93" width="66.7" height="35.07" rx="2" ry="2"/><path class="cls-29" d="M62.35,61.45H37.65a2.51,2.51,0,0,1-2.6-2.5V43.35a2.6,2.6,0,0,1,2.6-2.6h24.7a2.6,2.6,0,0,1,2.6,2.6V59A2.51,2.51,0,0,1,62.35,61.45Z"/><path class="cls-9" d="M62.35,40.75H37.65a2.6,2.6,0,0,0-2.6,2.6V46.6a2.6,2.6,0,0,1,2.6-2.6h24.7A2.6,2.6,0,0,1,65,46.6V43.35A2.6,2.6,0,0,0,62.35,40.75Z"/><path class="cls-7" d="M62.35,61.45H37.65a2.51,2.51,0,0,1-2.6-2.5V43.35a2.6,2.6,0,0,1,2.6-2.6h24.7a2.6,2.6,0,0,1,2.6,2.6V59A2.51,2.51,0,0,1,62.35,61.45Z"/><line class="cls-7" x1="38.95" y1="43.63" x2="61.05" y2="43.63"/><path class="cls-30" d="M54.55,65.45h-9.1l1.1-13.21a2.6,2.6,0,0,1,2.59-2.39h1.72a2.6,2.6,0,0,1,2.59,2.39Z"/><line class="cls-7" x1="39.07" y1="56.35" x2="39.07" y2="57.65"/><line class="cls-7" x1="41.38" y1="56.35" x2="41.38" y2="57.65"/><line class="cls-7" x1="43.68" y1="56.35" x2="43.68" y2="57.65"/></g></g></svg>