<svg id="Multicolor" xmlns="http://www.w3.org/2000/svg" viewBox="0 0 100 112"><defs><style>.cls-1{fill:#e8f4fa;}.cls-2{fill:#fff;}.cls-3,.cls-6{fill:none;}.cls-17,.cls-20,.cls-22,.cls-3,.cls-9{stroke:#191816;}.cls-17,.cls-20,.cls-22,.cls-3,.cls-6,.cls-9{stroke-linecap:round;stroke-linejoin:round;}.cls-4{fill:#ff6242;}.cls-5{fill:#ff866e;}.cls-6{stroke:#656769;}.cls-7,.cls-9{fill:#ffda8f;}.cls-8{fill:#ffbe3d;}.cls-10{fill:#614b44;}.cls-11{fill:#947063;}.cls-12{fill:#191816;opacity:0.15;}.cls-13{fill:#00dba8;}.cls-14{fill:#00ad85;}.cls-15{fill:#debb7e;}.cls-16{fill:#f0d5a8;}.cls-17{fill:#ff8a14;}.cls-18{fill:#00b8f0;}.cls-19{fill:#4acfff;}.cls-20{fill:#e0e0e0;}.cls-21{fill:#b89558;}.cls-22{fill:#915e3a;}</style></defs><title>46- university-student-male-asian-1</title><g id="Background"><g id="New_Symbol_49-3" data-name="New Symbol 49"><path class="cls-1" d="M90.49,56A40,40,0,1,0,14.06,72.5H86.93A39.85,39.85,0,0,0,90.49,56Z"/><path class="cls-2" d="M14.06,72.5a40,40,0,0,0,72.87,0Z"/><line class="cls-3" x1="10.99" y1="72.5" x2="88.99" y2="72.5"/><line class="cls-3" x1="6.49" y1="72.5" x2="8.99" y2="72.5"/><line class="cls-3" x1="90.99" y1="72.5" x2="93.49" y2="72.5"/></g></g><g id="Scene"><path class="cls-4" d="M77,65a15.5,15.5,0,1,0-31,0v2.5h6v5H71v-5h6Z"/><path class="cls-5" d="M61.49,49.5A15.5,15.5,0,0,0,46,65v2.5h.06a15.48,15.48,0,0,1,30.89,0h0V65A15.49,15.49,0,0,0,61.49,49.5Z"/><line class="cls-6" x1="51.99" y1="70.5" x2="70.99" y2="70.5"/><line class="cls-6" x1="45.99" y1="67.5" x2="76.99" y2="67.5"/><line class="cls-6" x1="45.99" y1="64.5" x2="76.99" y2="64.5"/><line class="cls-6" x1="46.39" y1="61.5" x2="76.6" y2="61.5"/><line class="cls-6" x1="47.42" y1="58.5" x2="75.57" y2="58.5"/><line class="cls-6" x1="49.25" y1="55.5" x2="73.74" y2="55.5"/><line class="cls-6" x1="52.33" y1="52.5" x2="70.66" y2="52.5"/><path class="cls-3" d="M77,65a15.5,15.5,0,1,0-31,0v2.5h6v5H71v-5h6Z"/><line class="cls-3" x1="51.99" y1="63.5" x2="51.99" y2="67.5"/><path class="cls-7" d="M58,50a3.5,3.5,0,1,0,7,0V46.5H58Z"/><path class="cls-8" d="M58,50a12.26,12.26,0,0,0,7,0V46.5H58Z"/><path class="cls-3" d="M58,50V46.5h7V50a3.5,3.5,0,1,1-7,0Z"/><rect class="cls-9" x="46.99" y="67.5" width="5" height="5"/><rect class="cls-9" x="70.99" y="67.5" width="5" height="5"/><path class="cls-9" d="M71.49,36v-2.5a10,10,0,1,0-20,0V36a2,2,0,0,0,0,4h.12a10,10,0,0,0,19.75,0h.13a2,2,0,0,0,0-4Z"/><circle class="cls-8" cx="55.74" cy="39.78" r="1.25"/><circle class="cls-8" cx="67.24" cy="39.77" r="1.25"/><path class="cls-3" d="M58.48,42.32a4.36,4.36,0,0,0,6,0"/><path class="cls-3" d="M59,36.53a1.63,1.63,0,0,0-3,0"/><path class="cls-3" d="M67,36.52a1.62,1.62,0,0,0-3,0"/><path class="cls-10" d="M52,36.52v-2c0-3.21,1.71-5,4.88-5.51,2.51.74,6.17.89,9-1a9.07,9.07,0,0,1,3.28,2.33c1.41,1.52,1.84,4,1.84,6.18a3.22,3.22,0,0,1,2,.5V31a6.8,6.8,0,0,0-7.12-6.51c-1.16-2.3-3.5-2-4.5-2A11.41,11.41,0,0,0,50,34v3A3.19,3.19,0,0,1,52,36.52Z"/><path class="cls-11" d="M65.87,24.51c-1.16-2.3-3.5-2-4.5-2A11.41,11.41,0,0,0,50,34v2A11.41,11.41,0,0,1,61.37,24.51c1,0,3.34-.3,4.5,2A6.8,6.8,0,0,1,73,33V31A6.8,6.8,0,0,0,65.87,24.51Z"/><path class="cls-3" d="M52,36.52v-2c0-3.21,1.71-5,4.88-5.51,2.51.74,6.17.89,9-1a9.07,9.07,0,0,1,3.28,2.33c1.41,1.52,1.84,4,1.84,6.18a3.22,3.22,0,0,1,2,.5V31a6.8,6.8,0,0,0-7.12-6.51c-1.16-2.3-3.5-2-4.5-2A11.41,11.41,0,0,0,50,34v3A3.19,3.19,0,0,1,52,36.52Z"/><ellipse class="cls-12" cx="72.99" cy="79.5" rx="14" ry="1.5"/><rect class="cls-13" x="59.99" y="75" width="26.5" height="3.5" rx="1" ry="1"/><path class="cls-14" d="M85.49,77H61a1,1,0,0,1-1-1v1.5a1,1,0,0,0,1,1h24.5a1,1,0,0,0,1-1V76A1,1,0,0,1,85.49,77Z"/><rect class="cls-3" x="59.99" y="75" width="26.5" height="3.5" rx="1" ry="1"/><rect class="cls-15" x="61.99" y="71.5" width="22.5" height="3.5" rx="1" ry="1"/><path class="cls-16" d="M83.49,71.5H63a1,1,0,0,0-1,1V74a1,1,0,0,1,1-1h20.5a1,1,0,0,1,1,1V72.5A1,1,0,0,0,83.49,71.5Z"/><rect class="cls-3" x="61.99" y="71.5" width="22.5" height="3.5" rx="1" ry="1"/><rect class="cls-17" x="61.99" y="69" width="21.5" height="2.5" rx="1" ry="1"/><rect class="cls-18" x="62.99" y="64" width="21.5" height="5" rx="1" ry="1"/><path class="cls-19" d="M83.49,64H64a1,1,0,0,0-1,1v2a1,1,0,0,1,1-1h19.5a1,1,0,0,1,1,1V65A1,1,0,0,0,83.49,64Z"/><rect class="cls-3" x="62.99" y="64" width="21.5" height="5" rx="1" ry="1"/><rect class="cls-20" x="65.99" y="64" width="2" height="5"/><rect class="cls-20" x="70.99" y="64" width="2" height="5"/><ellipse class="cls-12" cx="33.49" cy="78.5" rx="15.5" ry="1.5"/><path class="cls-21" d="M45,60.5H22a1,1,0,0,0-1,1v14a2,2,0,0,0,2,2H44a2,2,0,0,0,2-2v-14A1,1,0,0,0,45,60.5Z"/><path class="cls-15" d="M45,60.5H22a1,1,0,0,0-1,1V65a1,1,0,0,1,1-1H45a1,1,0,0,1,1,1V61.5A1,1,0,0,0,45,60.5Z"/><path class="cls-3" d="M45,60.5H22a1,1,0,0,0-1,1v14a2,2,0,0,0,2,2H44a2,2,0,0,0,2-2v-14A1,1,0,0,0,45,60.5Z"/><path class="cls-3" d="M21,68a1.5,1.5,0,0,0,1.5,1.5h22A1.5,1.5,0,0,0,46,68"/><path class="cls-22" d="M25,72a1.5,1.5,0,0,0,3,0V68.5a1,1,0,0,0-1-1H26a1,1,0,0,0-1,1Z"/><line class="cls-3" x1="24.49" y1="71" x2="28.49" y2="71"/><path class="cls-22" d="M39,72a1.5,1.5,0,0,0,3,0V68.5a1,1,0,0,0-1-1H40a1,1,0,0,0-1,1Z"/><line class="cls-3" x1="38.49" y1="71" x2="42.49" y2="71"/><path class="cls-22" d="M19,76a3.5,3.5,0,0,0,3.5,3.5H33a1,1,0,0,1,1,1v1a1,1,0,0,1-1,1H22.49A3.5,3.5,0,0,1,19,79Z"/><path class="cls-22" d="M48,77a3.5,3.5,0,0,1-3.5,3.5H33a1,1,0,0,0-1,1v1a1,1,0,0,0,1,1h11.5A3.5,3.5,0,0,0,48,80Z"/><path class="cls-3" d="M21,61.5S19,69.91,19,76"/><path class="cls-3" d="M46,61.5s2,9.17,2,15.5"/></g></svg>