<svg id="Multicolor" xmlns="http://www.w3.org/2000/svg" viewBox="0 0 100 112"><defs><style>.cls-1,.cls-14{fill:#e8f4fa;}.cls-2,.cls-21{fill:#fff;}.cls-11,.cls-12,.cls-3{fill:none;}.cls-10,.cls-11,.cls-13,.cls-14,.cls-17,.cls-18,.cls-21,.cls-3,.cls-4,.cls-9{stroke:#191816;}.cls-10,.cls-12,.cls-13,.cls-14,.cls-18,.cls-21,.cls-3,.cls-4,.cls-9{stroke-linecap:round;}.cls-10,.cls-11,.cls-12,.cls-13,.cls-14,.cls-17,.cls-18,.cls-21,.cls-3,.cls-4,.cls-9{stroke-linejoin:round;}.cls-16,.cls-4{fill:#ffcebf;}.cls-15,.cls-5{fill:#191816;}.cls-6{fill:#ffb59e;}.cls-7{fill:#ffc44d;}.cls-8{fill:#ffdb94;}.cls-9{fill:#bf8256;}.cls-10{fill:#46b000;}.cls-12{stroke:#fff;}.cls-13{fill:#daedf7;}.cls-15{opacity:0.15;}.cls-17,.cls-18{fill:#87898c;}.cls-19{fill:#ff6242;}.cls-20{fill:#ff866e;}</style></defs><title>03- teacher-chalkboard</title><g id="Background"><g id="New_Symbol_10-3" data-name="New Symbol 10"><path class="cls-1" d="M90,56A40,40,0,1,0,13.56,72.5H86.43A39.85,39.85,0,0,0,90,56Z"/><path class="cls-2" d="M13.56,72.5a40,40,0,0,0,72.87,0Z"/><line class="cls-3" x1="10.99" y1="72.5" x2="88.99" y2="72.5"/><line class="cls-3" x1="6.49" y1="72.5" x2="8.99" y2="72.5"/><line class="cls-3" x1="90.99" y1="72.5" x2="93.49" y2="72.5"/></g></g><g id="Scene"><path class="cls-4" d="M31.72,24.71a6.92,6.92,0,0,0-6.92,6.92V33c-2,0-1.84,3.46.34,3.46h0A6.9,6.9,0,0,0,38.64,34.4V31.63A6.92,6.92,0,0,0,31.72,24.71Z"/><path class="cls-5" d="M30.51,32.32a.87.87,0,1,0,.86.86.87.87,0,0,0-.86-.86Z"/><path class="cls-5" d="M35.7,32.32a.87.87,0,1,0,.86.86.87.87,0,0,0-.86-.86Z"/><path class="cls-6" d="M29.64,36a.69.69,0,1,1-.69-.69A.69.69,0,0,1,29.64,36Z"/><path class="cls-3" d="M31.37,37.1a2.59,2.59,0,0,0,3.05.28,2.71,2.71,0,0,0,.41-.28"/><path class="cls-7" d="M26.86,33.7a2.77,2.77,0,0,1,2.77-2.76h9.71a.61.61,0,0,0,.44-.2.56.56,0,0,0,.13-.46,8.76,8.76,0,0,0-7.42-7.58,8.66,8.66,0,0,0-9.78,8.58V41.43a1.16,1.16,0,0,0,1.45,1.11,3.44,3.44,0,0,0,2.7-3.3Z"/><path class="cls-8" d="M31,25.4a11.57,11.57,0,0,1,8.73,4,8.61,8.61,0,0,0-16.58-.91A11.5,11.5,0,0,1,31,25.4Z"/><rect class="cls-9" x="42.49" y="32.19" width="42.72" height="25.87" rx="1" ry="1"/><rect class="cls-10" x="44.9" y="34.59" width="37.91" height="21.06" rx="1" ry="1"/><path class="cls-11" d="M26.86,33.7a2.77,2.77,0,0,1,2.77-2.76h9.71a.61.61,0,0,0,.44-.2.56.56,0,0,0,.13-.46,8.76,8.76,0,0,0-7.42-7.58,8.66,8.66,0,0,0-9.78,8.58V41.43a1.16,1.16,0,0,0,1.45,1.11,3.44,3.44,0,0,0,2.7-3.3Z"/><line class="cls-3" x1="31.71" y1="30.94" x2="31.71" y2="28.17"/><line class="cls-3" x1="28.94" y1="31.02" x2="28.94" y2="28.17"/><line class="cls-3" x1="34.48" y1="30.94" x2="34.48" y2="28.17"/><line class="cls-3" x1="37.24" y1="30.94" x2="37.24" y2="28.17"/><polyline class="cls-12" points="67.16 40.61 56.94 40.61 55.73 48.43 53.33 43.62 50.92 43.62"/><line class="cls-12" x1="64.15" y1="43.62" x2="59.34" y2="48.43"/><line class="cls-12" x1="59.34" y1="43.62" x2="64.15" y2="48.43"/><line class="cls-12" x1="70.77" y1="44.22" x2="76.19" y2="44.22"/><line class="cls-12" x1="70.77" y1="47.23" x2="76.19" y2="47.23"/><path class="cls-13" d="M74.46,72.5H67.09a1.2,1.2,0,0,1-1.2-1.13l-.53-8.5H76.19l-.53,8.5A1.2,1.2,0,0,1,74.46,72.5Z"/><path class="cls-14" d="M73.78,60.47h-6a2.4,2.4,0,0,0-2.41,2.4H76.19A2.4,2.4,0,0,0,73.78,60.47Z"/><line class="cls-3" x1="70.77" y1="65.28" x2="70.77" y2="70.09"/><line class="cls-3" x1="73.78" y1="65.28" x2="73.18" y2="70.09"/><line class="cls-3" x1="67.77" y1="65.28" x2="68.37" y2="70.09"/><path class="cls-3" d="M69,60.47V59.26a1.2,1.2,0,0,1,1.2-1.2h1.21a1.2,1.2,0,0,1,1.2,1.2v1.21"/><ellipse class="cls-15" cx="33.71" cy="87.78" rx="11.5" ry="1.72"/><path class="cls-4" d="M47.62,65.06a2.08,2.08,0,0,1-2.07,2.08c-4.58,0-9.69-4.44-9.69-10.38v-.7a2.08,2.08,0,0,1,4.15,0v.7c0,3.8,3.28,6.23,5.54,6.23A2.07,2.07,0,0,1,47.62,65.06Z"/><polygon class="cls-16" points="31.71 83.75 27.56 83.75 26.86 75.44 31.71 75.44 31.71 83.75"/><polygon class="cls-6" points="31.71 78.21 27.09 78.21 26.86 75.44 31.71 75.44 31.71 78.21"/><polygon class="cls-3" points="31.71 83.75 27.56 83.75 26.86 75.44 31.71 75.44 31.71 83.75"/><polygon class="cls-16" points="31.71 83.75 35.86 83.75 36.55 75.44 31.71 75.44 31.71 83.75"/><polygon class="cls-6" points="31.71 78.21 36.32 78.21 36.55 75.44 31.71 75.44 31.71 78.21"/><polygon class="cls-3" points="31.71 83.75 35.86 83.75 36.55 75.44 31.71 75.44 31.71 83.75"/><line class="cls-4" x1="31.71" y1="75.44" x2="31.71" y2="86.51"/><path class="cls-17" d="M31.71,83.75h3.46c3.39,0,4.17,3.46,4.17,3.46H31.71Z"/><path class="cls-17" d="M27.56,83.75H31c3.39,0,4.16,3.46,4.16,3.46H28.71a1.15,1.15,0,0,1-1.15-1.15Z"/><path class="cls-18" d="M25.48,63.68l.63,10.68a1.14,1.14,0,0,0,1.15,1.08h8.9a1.15,1.15,0,0,0,1.15-1.08l.63-10.68Z"/><path class="cls-4" d="M21.33,58.14V68.52a2.08,2.08,0,1,0,4.15,0V58.14Z"/><line class="cls-3" x1="44.85" y1="65.06" x2="50.39" y2="47.07"/><path class="cls-19" d="M40.7,53.3a9.69,9.69,0,1,0-19.37,0v4.84h4.16v5.54H37.94V58.14h1.61A1.14,1.14,0,0,0,40.7,57Z"/><path class="cls-20" d="M31,43.61a9.69,9.69,0,0,0-9.69,9.69v3.28a9.69,9.69,0,1,1,19.37,0V53.3A9.68,9.68,0,0,0,31,43.61Z"/><path class="cls-3" d="M40.7,53.3a9.69,9.69,0,1,0-19.37,0v4.84h4.16v5.54H37.94V58.14h1.61A1.14,1.14,0,0,0,40.7,57Z"/><path class="cls-4" d="M31,43.61a9.54,9.54,0,0,0-2.46.32l3.15,8.68,3-8.27A9.59,9.59,0,0,0,31,43.61Z"/><line class="cls-3" x1="25.48" y1="60.22" x2="25.48" y2="53.99"/><line class="cls-3" x1="31.71" y1="52.61" x2="31.71" y2="63.68"/><path class="cls-21" d="M28.56,43.93l-1.75,4.33a1.15,1.15,0,0,0,1.07,1.58h2.83Z"/><path class="cls-21" d="M35.09,44.51l-.39-.17-2,5.5h2.83a1.14,1.14,0,0,0,1-.51,1.1,1.1,0,0,0,.11-1.07Z"/><path class="cls-3" d="M37.94,58.14a4.11,4.11,0,0,1,.76-2.39,4.2,4.2,0,0,0,.62-2.27"/></g></svg>