<svg id="Multicolor" xmlns="http://www.w3.org/2000/svg" viewBox="0 0 100 112"><defs><style>.cls-1{fill:#e8f4fa;}.cls-2{fill:#ff6242;}.cls-3{fill:#ff866e;}.cls-4{fill:#e04122;}.cls-5{fill:none;}.cls-5,.cls-6{stroke:#191816;stroke-linecap:round;stroke-linejoin:round;}.cls-6{fill:#fff;}</style></defs><title>03- rescue-service-1</title><g id="Background"><g id="New_Symbol_1-13" data-name="New Symbol 1"><circle class="cls-1" cx="50.49" cy="56" r="40"/></g></g><g id="Scene"><path class="cls-2" d="M50.66,30.17a24.6,24.6,0,1,0,24.6,24.6A24.6,24.6,0,0,0,50.66,30.17Zm0,38.09A13.49,13.49,0,1,1,64.15,54.77,13.49,13.49,0,0,1,50.66,68.26Z"/><path class="cls-3" d="M50.66,34.14a24.6,24.6,0,0,1,24.5,22.61c0-.66.1-1.31.1-2a24.6,24.6,0,0,0-49.2,0c0,.67.05,1.32.1,2A24.58,24.58,0,0,1,50.66,34.14Z"/><path class="cls-4" d="M50.66,75.4a24.6,24.6,0,0,0,24.5-22.62c0,.66.1,1.32.1,2a24.6,24.6,0,0,1-49.2,0c0-.67.05-1.33.1-2A24.58,24.58,0,0,0,50.66,75.4Z"/><path class="cls-5" d="M50.66,30.17a24.6,24.6,0,1,0,24.6,24.6A24.6,24.6,0,0,0,50.66,30.17Zm0,38.09A13.49,13.49,0,1,1,64.15,54.77,13.49,13.49,0,0,1,50.66,68.26Z"/><rect class="cls-6" x="46.69" y="26.99" width="7.93" height="15.87" rx="1" ry="1"/><rect class="cls-6" x="46.69" y="66.67" width="7.93" height="15.87" rx="1" ry="1"/><rect class="cls-6" x="66.53" y="46.83" width="7.94" height="15.87" rx="1" ry="1" transform="translate(125.26 -15.73) rotate(90)"/><rect class="cls-6" x="26.85" y="46.83" width="7.94" height="15.87" rx="1" ry="1" transform="translate(85.59 23.95) rotate(90)"/><path class="cls-5" d="M24.47,58.73l1.78,13.33a11.1,11.1,0,0,0,11.93,9.6L46.69,81"/><path class="cls-5" d="M76.84,58.73,75.07,72.06a11.12,11.12,0,0,1-11.94,9.6L54.63,81"/></g></svg>