<svg viewBox="0 0 24 24" xmlns="http://www.w3.org/2000/svg" stroke-width="1.5"><path d="M12,22.8V5.387S9.545,2.66,1.268,2.55A.514.514,0,0,0,.9,2.7a.526.526,0,0,0-.152.37V19.444a.516.516,0,0,0,.5.52C9.543,20.071,12,22.8,12,22.8" fill="none" stroke="currentColor" stroke-linecap="round" stroke-linejoin="round"></path><path d="M9,11.855A21.258,21.258,0,0,0,3.74,10.8" fill="none" stroke="currentColor" stroke-linecap="round" stroke-linejoin="round"></path><path d="M9,16.05A21.311,21.311,0,0,0,3.74,15" fill="none" stroke="currentColor" stroke-linecap="round" stroke-linejoin="round"></path><path d="M15,11.855A21.258,21.258,0,0,1,20.26,10.8" fill="none" stroke="currentColor" stroke-linecap="round" stroke-linejoin="round"></path><path d="M15,16.05A21.311,21.311,0,0,1,20.26,15" fill="none" stroke="currentColor" stroke-linecap="round" stroke-linejoin="round"></path><path d="M20.26,2.67c.76-.066,1.582-.108,2.472-.12a.514.514,0,0,1,.366.15.526.526,0,0,1,.152.37V19.444a.516.516,0,0,1-.5.52C14.457,20.071,12,22.8,12,22.8" fill="none" stroke="currentColor" stroke-linecap="round" stroke-linejoin="round"></path><path d="M12,22.8V5.387s1.143-1.27,4.5-2.111" fill="none" stroke="currentColor" stroke-linecap="round" stroke-linejoin="round"></path><path d="M20.25,7.8V1.2a24.031,24.031,0,0,0-3.75.6v6l1.875-1.5Z" fill="none" stroke="currentColor" stroke-linecap="round" stroke-linejoin="round"></path></svg>