<svg xmlns="http://www.w3.org/2000/svg" viewBox="0 0 24 24"><defs><style>.a{fill:none;stroke:currentColor;stroke-linecap:round;stroke-linejoin:round;stroke-width:1.5px;}</style></defs><title>cloud-storage-drive</title><path class="a" d="M15,19.5a.375.375,0,1,0,.375.375A.375.375,0,0,0,15,19.5h0"/><path class="a" d="M15.374,23.251a3.375,3.375,0,0,0,0-6.75H7.124a3.375,3.375,0,0,0,0,6.75Z"/><path class="a" d="M18.489,18.577l-1.971-4.73A3,3,0,0,0,13.749,12h-5A3,3,0,0,0,5.98,13.847l-1.971,4.73"/><path class="a" d="M20.883,15.056A4.873,4.873,0,1,0,15.61,6.865,7.5,7.5,0,1,0,2.683,13.277"/></svg>