<svg xmlns="http://www.w3.org/2000/svg" viewBox="0 0 24 24"><defs><style>.a{fill:none;stroke:#b3b2b3;stroke-linecap:round;stroke-linejoin:round;stroke-width:1.5px;}</style></defs><title>content-pen-double</title><path class="a" d="M17.735,10.5l4.636-4.629a3,3,0,1,0-4.242-4.242L13.5,6.25"/><path class="a" d="M5.5,14.25l-.637.637a1.5,1.5,0,0,0,0,2.121L6.988,19.13a1.5,1.5,0,0,0,2.121,0l.38-.38"/><path class="a" d="M22.371,5.871a3,3,0,0,1,0,4.243l-1.364,1.364"/><path class="a" d="M5.914,18.056a2.314,2.314,0,0,0-3.247.065C1.762,19.026.75,23.25.75,23.25s4.194-1.042,5.1-1.947A2.313,2.313,0,0,0,5.914,18.056Z"/><path class="a" d="M5.875,1.629,20.194,15.948,15.951,20.19,1.746,5.985a3.112,3.112,0,0,1-.441-3.971A3,3,0,0,1,5.875,1.629Z"/><path class="a" d="M1.632,5.871a3,3,0,0,0,0,4.243L3,11.485"/><line class="a" x1="6.952" y1="11.191" x2="11.195" y2="6.949"/><polygon class="a" points="23.25 23.25 20.194 15.948 15.951 20.19 23.25 23.25"/></svg>