<svg xmlns="http://www.w3.org/2000/svg" viewBox="0 0 24 24"><defs><style>.a{fill:none;stroke:currentColor;stroke-linecap:round;stroke-linejoin:round;stroke-width:1.5px;}</style></defs><title>module-hands-puzzle</title><path class="a" d="M12.185,10.1a1.7,1.7,0,1,1,2.4-2.4,1.764,1.764,0,0,1,.39.59.441.441,0,0,0,.314.267.424.424,0,0,0,.39-.113L17,7.121a.859.859,0,0,0-.013-1.213L15.6,4.519a1.661,1.661,0,0,0,.765-.436,1.733,1.733,0,0,0-2.451-2.45,1.659,1.659,0,0,0-.435.764L12.09,1.008A.857.857,0,0,0,10.878,1l-1.23,1.23a.422.422,0,0,0-.12.345.44.44,0,0,0,.193.317,1.745,1.745,0,0,1,.269.221,1.7,1.7,0,1,1-2.4,2.4,1.812,1.812,0,0,1-.221-.27.438.438,0,0,0-.317-.193.422.422,0,0,0-.345.12L5.477,6.4A.859.859,0,0,0,5.49,7.608l4.9,4.9a.858.858,0,0,0,1.213.012L12.929,11.2a.423.423,0,0,0,.112-.39.442.442,0,0,0-.266-.314A1.754,1.754,0,0,1,12.185,10.1Z"/><path class="a" d="M3.748,23.25,1.735,20.733a4.5,4.5,0,0,1-.987-2.811V12.75a1.5,1.5,0,0,1,1.5-1.5h0a1.5,1.5,0,0,1,1.5,1.5V16.5"/><path class="a" d="M8.248,23.25V20.114a4.5,4.5,0,0,0-.756-2.5L6.349,15.9a1.4,1.4,0,0,0-1.977-.445h0A1.4,1.4,0,0,0,3.9,17.25L5.248,19.5"/><path class="a" d="M20.248,23.25l2.014-2.517a4.5,4.5,0,0,0,.986-2.811V12.75a1.5,1.5,0,0,0-1.5-1.5h0a1.5,1.5,0,0,0-1.5,1.5V16.5"/><path class="a" d="M15.748,23.25V20.114a4.5,4.5,0,0,1,.757-2.5L17.648,15.9a1.4,1.4,0,0,1,1.977-.445h0A1.4,1.4,0,0,1,20.1,17.25L18.748,19.5"/></svg>