<svg xmlns="http://www.w3.org/2000/svg" viewBox="0 0 24 24"><g><path d="M23.49,6.27,17.73.51A1.48,1.48,0,0,0,16.68.08a1.5,1.5,0,0,0-1.25.68l-4.1,6.45A7.47,7.47,0,0,0,5.86,8a1.47,1.47,0,0,0-.29,2.32l8.1,8.1a1.5,1.5,0,0,0,1.24.43A1.53,1.53,0,0,0,16,18.14a7.49,7.49,0,0,0,.8-5.47l6.44-4.1a1.48,1.48,0,0,0,.25-2.3Zm-6.2-2.84L15.17,6.76a.5.5,0,1,1-.84-.54l2.12-3.33a.5.5,0,1,1,.84.54Z" fill="currentColor"></path><path d="M6.45,15.43.51,21.37a1.51,1.51,0,0,0,0,2.12,1.53,1.53,0,0,0,2.13,0l5.94-5.94a1.5,1.5,0,0,0-2.13-2.12Z" fill="currentColor"></path></g></svg>