<svg xmlns="http://www.w3.org/2000/svg" fill="none" viewBox="0 0 14 14"><path fill="currentColor" fill-rule="evenodd" d="M14 7C14 10.866 10.866 14 7 14C3.13401 14 0 10.866 0 7C0 3.13401 3.13401 0 7 0C10.866 0 14 3.13401 14 7ZM4.46967 4.46967C4.76256 4.17678 5.23744 4.17678 5.53033 4.46967L7 5.93934L8.46967 4.46967C8.76256 4.17678 9.23744 4.17678 9.53033 4.46967C9.82322 4.76256 9.82322 5.23744 9.53033 5.53033L8.06066 7L9.53033 8.46967C9.82322 8.76256 9.82322 9.23744 9.53033 9.53033C9.23744 9.82322 8.76256 9.82322 8.46967 9.53033L7 8.06066L5.53033 9.53033C5.23744 9.82322 4.76256 9.82322 4.46967 9.53033C4.17678 9.23744 4.17678 8.76256 4.46967 8.46967L5.93934 7L4.46967 5.53033C4.17678 5.23744 4.17678 4.76256 4.46967 4.46967Z" clip-rule="evenodd"></path></svg>