<svg xmlns="http://www.w3.org/2000/svg" viewBox="0 0 24 24"><title>task-list-check-1</title><path d="M6,7.749a.75.75,0,0,0,0,1.5h6a.75.75,0,0,0,0-1.5Z" fill="currentColor"/><path d="M9.4,16.249a.241.241,0,0,0,.238-.2,7.961,7.961,0,0,1,.237-.954c.037-.116,0-.345-.332-.345H6a.75.75,0,1,0,0,1.5Z" fill="currentColor"/><path d="M9.686,19.194a.244.244,0,0,0-.238-.2H3.5a.5.5,0,0,1-.5-.5V5.5A.5.5,0,0,1,3.5,5h11a.5.5,0,0,1,.5.5V9.58a.247.247,0,0,0,.3.245,18.173,18.173,0,0,1,2.468-.293A.249.249,0,0,0,18,9.282V3.5A1.5,1.5,0,0,0,16.5,2h-4a.241.241,0,0,1-.208-.121,3.827,3.827,0,0,0-6.588,0A.241.241,0,0,1,5.5,2h-4A1.5,1.5,0,0,0,0,3.5v17A1.5,1.5,0,0,0,1.5,22h8.94a.246.246,0,0,0,.207-.379A7.977,7.977,0,0,1,9.686,19.194Z" fill="currentColor"/><path d="M12.244,11.48c.09-.079-.009-.231-.244-.231H6a.75.75,0,0,0,0,1.5h4.958a.241.241,0,0,0,.192-.1A8.059,8.059,0,0,1,12.244,11.48Z" fill="currentColor"/><path d="M17.5,11A6.5,6.5,0,1,0,24,17.5,6.508,6.508,0,0,0,17.5,11ZM20.773,16.2l-2.905,3.874a1.5,1.5,0,0,1-1.095.6c-.035,0-.071,0-.106,0a1.5,1.5,0,0,1-1.061-.442l-1.5-1.5a.75.75,0,0,1,1.061-1.061l1.3,1.3a.25.25,0,0,0,.377-.027L19.574,15.3a.75.75,0,1,1,1.2.9Z" fill="currentColor"/></svg>