<svg xmlns="http://www.w3.org/2000/svg" viewBox="0 0 24 24"><defs><style>.a{fill:none;stroke:currentColor;stroke-linecap:round;stroke-linejoin:round;stroke-width:1.5px;}</style></defs><title>monitor-programming-book</title><path class="a" d="M17.25,14.452c0-1.492,2.662-2.353,5.479-2.448a.565.565,0,0,1,.367.113.38.38,0,0,1,.154.3v6.552a.457.457,0,0,1-.48.409A9.633,9.633,0,0,0,17.25,21a9.633,9.633,0,0,0-5.52-1.629.458.458,0,0,1-.48-.409V12.413a.38.38,0,0,1,.154-.3A.565.565,0,0,1,11.771,12C14.588,12.1,17.25,12.96,17.25,14.452Z"/><line class="a" x1="17.25" y1="14.452" x2="17.25" y2="21.003"/><path class="a" d="M8.25,17.253H1.75a1.012,1.012,0,0,1-1-1.017V4.021A1.013,1.013,0,0,1,1.75,3h16a1.012,1.012,0,0,1,1,1.018v5.09"/><line class="a" x1="4.663" y1="21.003" x2="8.25" y2="21.003"/><line class="a" x1="8.25" y1="17.253" x2="8.25" y2="21.003"/><polyline class="a" points="3.75 6.753 6.75 9.003 3.75 11.253"/><line class="a" x1="9.75" y1="9.003" x2="13.5" y2="9.003"/></svg>