<svg xmlns="http://www.w3.org/2000/svg" viewBox="0 0 24 24"><defs><style>.a{fill:none;stroke:currentColor;stroke-linecap:round;stroke-linejoin:round;stroke-width:1.5px;}</style></defs><title>study-owl</title><path class="a" d="M12.4,5.144,20.25,3,12.4.859a1.512,1.512,0,0,0-.79,0L3.75,3l7.855,2.143A1.512,1.512,0,0,0,12.4,5.144Z"/><line class="a" x1="17.25" y1="7.154" x2="17.25" y2="3.82"/><line class="a" x1="7.5" y1="4.024" x2="7.5" y2="6.847"/><line class="a" x1="3.75" y1="3.001" x2="3.75" y2="6.001"/><circle class="a" cx="8.25" cy="9.751" r="3"/><path class="a" d="M8.25,9.376a.375.375,0,0,0-.375.375"/><path class="a" d="M8.625,9.751a.375.375,0,0,0-.375-.375"/><path class="a" d="M8.25,10.126a.375.375,0,0,0,.375-.375"/><path class="a" d="M7.875,9.751a.375.375,0,0,0,.375.375"/><circle class="a" cx="15.75" cy="9.751" r="3"/><path class="a" d="M15.75,9.376a.375.375,0,0,0-.375.375"/><path class="a" d="M16.125,9.751a.375.375,0,0,0-.375-.375"/><path class="a" d="M15.75,10.126a.375.375,0,0,0,.375-.375"/><path class="a" d="M15.375,9.751a.375.375,0,0,0,.375.375"/><polyline class="a" points="9.484 12.486 12 15.001 14.516 12.486"/><path class="a" d="M18,15v2.337a6,6,0,0,1-12,0V15"/><path class="a" d="M18.225,11.447a3.132,3.132,0,0,1,3.525,3.076v2.065a5.217,5.217,0,0,1-5.732,5.142"/><path class="a" d="M5.657,11.262A3.149,3.149,0,0,0,2.25,14.4v2.1A5.251,5.251,0,0,0,7.982,21.73"/></svg>