<svg xmlns="http://www.w3.org/2000/svg" viewBox="0 0 24 24"><defs><style>.a{fill:none;stroke:currentColor;stroke-linecap:round;stroke-linejoin:round;stroke-width:1.5px;}</style></defs><title>file-database</title><ellipse class="a" cx="12" cy="9.003" rx="6" ry="2.25"/><path class="a" d="M6,9v3c0,1.243,2.686,2.25,6,2.25s6-1.007,6-2.25V9"/><path class="a" d="M6,12v3c0,1.243,2.686,2.25,6,2.25s6-1.007,6-2.25V12"/><path class="a" d="M22.5,21.753a1.5,1.5,0,0,1-1.5,1.5H3a1.5,1.5,0,0,1-1.5-1.5V2.253A1.5,1.5,0,0,1,3,.753H18a1.5,1.5,0,0,1,1.048.427l3,2.882A1.5,1.5,0,0,1,22.5,5.136Z"/></svg>