<svg xmlns="http://www.w3.org/2000/svg" viewBox="0 0 24 24"><defs><style>.a{fill:none;stroke:currentColor;stroke-linecap:round;stroke-linejoin:round;stroke-width:1.5px;}</style></defs><title>list-numbers</title><line class="a" x1="8.25" y1="3.748" x2="23.25" y2="3.748"/><line class="a" x1="8.25" y1="12.748" x2="23.25" y2="12.748"/><line class="a" x1="8.25" y1="21.748" x2="23.25" y2="21.748"/><path class="a" d="M.8,18.36A1.5,1.5,0,1,1,2.25,20.248a1.5,1.5,0,1,1-1.445,1.9"/><path class="a" d="M.75,11.248a1.5,1.5,0,0,1,1.5-1.5h0a1.5,1.5,0,0,1,1.5,1.5h0a2.139,2.139,0,0,1-.468,1.336L.75,14.248h3"/><path class="a" d="M.75.748H1.5a.75.75,0,0,1,.75.75v5.25"/><line class="a" x1="0.75" y1="6.748" x2="3.75" y2="6.748"/></svg>