<svg xmlns="http://www.w3.org/2000/svg" viewBox="0 0 24 24"><defs><style>.a{fill:none;stroke:currentColor;stroke-linecap:round;stroke-linejoin:round;stroke-width:1.5px;}</style></defs><title>lock-password</title><rect class="a" x="3.75" y="9.75" width="16.5" height="13.5" rx="1.5" ry="1.5"/><path class="a" d="M6.75,9.75V6a5.25,5.25,0,0,1,10.5,0V9.75"/><path class="a" d="M8.625,14.25A.375.375,0,1,0,9,14.625a.375.375,0,0,0-.375-.375h0"/><path class="a" d="M12,14.25a.375.375,0,1,0,.375.375A.375.375,0,0,0,12,14.25h0"/><path class="a" d="M15.375,14.25a.375.375,0,1,0,.375.375.375.375,0,0,0-.375-.375h0"/><path class="a" d="M8.625,18A.375.375,0,1,0,9,18.375.375.375,0,0,0,8.625,18h0"/><path class="a" d="M12,18a.375.375,0,1,0,.375.375A.375.375,0,0,0,12,18h0"/><path class="a" d="M15.375,18a.375.375,0,1,0,.375.375A.375.375,0,0,0,15.375,18h0"/></svg>