<svg xmlns="http://www.w3.org/2000/svg" viewBox="0 0 24 24"><defs><style>.a{fill:none;stroke:currentColor;stroke-linecap:round;stroke-linejoin:round;stroke-width:1.5px;}</style></defs><title>module-puzzle</title><path class="a" d="M19.5,15.75l3.311-3.311a1.5,1.5,0,0,0,0-2.121L20.7,8.212A3.75,3.75,0,1,1,15.788,3.3L13.682,1.189a1.5,1.5,0,0,0-2.121,0L8.25,4.5A3.75,3.75,0,1,0,4.5,8.25L1.189,11.561a1.5,1.5,0,0,0,0,2.121L3.3,15.788A3.75,3.75,0,1,1,8.212,20.7l2.106,2.107a1.5,1.5,0,0,0,2.121,0L15.75,19.5a3.75,3.75,0,1,0,3.75-3.75Z"/></svg>