<svg xmlns="http://www.w3.org/2000/svg" viewBox="0 0 24 24"><defs><style>.a,.b{fill:none;stroke:currentColor;stroke-linecap:round;stroke-linejoin:round;stroke-width:1.5px;}.a{fill-rule:evenodd;}</style></defs><title>settings-toggle-horizontal</title><path class="a" d="M18.376,10.5H5.626A4.888,4.888,0,0,1,.751,5.625h0A4.889,4.889,0,0,1,5.626.75h12.75a4.89,4.89,0,0,1,4.875,4.875h0A4.889,4.889,0,0,1,18.376,10.5Z"/><path class="a" d="M18.376,23.25H5.626A4.888,4.888,0,0,1,.751,18.375h0A4.889,4.889,0,0,1,5.626,13.5h12.75a4.89,4.89,0,0,1,4.875,4.875h0A4.889,4.889,0,0,1,18.376,23.25Z"/><circle class="b" cx="5.626" cy="5.625" r="1.875"/><circle class="b" cx="18.376" cy="18.375" r="1.875"/></svg>