<svg xmlns="http://www.w3.org/2000/svg" viewBox="0 0 24 24"><defs><style>.a{fill:none;stroke:currentColor;stroke-linecap:round;stroke-linejoin:round;stroke-width:1.5px;}</style></defs><title>task-list-pen</title><path class="a" d="M17.25,6.359V22.51a.75.75,0,0,1-.75.75H4.5a.75.75,0,0,1-.75-.75V6.76"/><path class="a" d="M20.25,20.26l1.5,3,1.5-3V10.51a1.5,1.5,0,0,0-1.5-1.5h0a1.5,1.5,0,0,0-1.5,1.5Z"/><path class="a" d="M3.75.76h0a3,3,0,0,1,3,3h0a3,3,0,0,1-3,3h12a3,3,0,0,0,3-3h0a3,3,0,0,0-3-3h-12Z"/><path class="a" d="M3.75.76h0a3,3,0,0,0-3,3v12"/><polyline class="a" points="9 11.26 10.5 12.76 12.75 10.51"/><polyline class="a" points="9 16.51 10.5 18.01 12.75 15.76"/></svg>