<svg xmlns="http://www.w3.org/2000/svg" viewBox="0 0 24 24"><defs><style>.a{fill:none;stroke:currentColor;stroke-linecap:round;stroke-linejoin:round;stroke-width:1.5px;}</style></defs><title>text-format</title><path class="a" d="M8.25,9V7.873A.376.376,0,0,1,8.625,7.5h6.75a.376.376,0,0,1,.375.375V9"/><line class="a" x1="12" y1="7.498" x2="12" y2="16.498"/><line class="a" x1="10.875" y1="16.498" x2="13.125" y2="16.498"/><line class="a" x1="3" y1="15.748" x2="3" y2="8.248"/><rect class="a" x="0.75" y="0.748" width="4.5" height="4.5" rx="0.563" ry="0.563"/><rect class="a" x="0.75" y="18.748" width="4.5" height="4.5" rx="0.563" ry="0.563"/><line class="a" x1="21" y1="15.748" x2="21" y2="8.248"/><line class="a" x1="8.25" y1="2.998" x2="15.75" y2="2.998"/><line class="a" x1="8.25" y1="20.998" x2="15.75" y2="20.998"/><rect class="a" x="18.75" y="0.748" width="4.5" height="4.5" rx="0.563" ry="0.563"/><rect class="a" x="18.75" y="18.748" width="4.5" height="4.5" rx="0.563" ry="0.563"/></svg>