<svg xmlns="http://www.w3.org/2000/svg" viewBox="0 0 24 24"><defs><style>.a{fill:none;stroke:currentColor;stroke-linecap:round;stroke-linejoin:round;stroke-width:1.5px;}</style></defs><title>time-clock-file-edit</title><path class="a" d="M22.631,14.87,15,22.5l-3.75.75L12,19.5l7.631-7.63a2.115,2.115,0,0,1,2.991,0l.009.009A2.115,2.115,0,0,1,22.631,14.87Z"/><path class="a" d="M8.25,20.25h-6a1.5,1.5,0,0,1-1.5-1.5V2.25A1.5,1.5,0,0,1,2.25.75H12.879a1.5,1.5,0,0,1,1.06.44l2.872,2.871a1.5,1.5,0,0,1,.439,1.061V8.25"/><circle class="a" cx="8.25" cy="9.75" r="4.5"/><polyline class="a" points="9.75 9.75 8.25 9.75 8.25 8.25"/></svg>