<?xml version="1.0" encoding="utf-8"?>
<!-- Generator: Adobe Illustrator 14.0.0, SVG Export Plug-In . SVG Version: 6.00 Build 43363)  -->
<!DOCTYPE svg PUBLIC "-//W3C//DTD SVG 1.1//EN" "http://www.w3.org/Graphics/SVG/1.1/DTD/svg11.dtd">
<svg version="1.1" xmlns="http://www.w3.org/2000/svg" xmlns:xlink="http://www.w3.org/1999/xlink" x="0px" y="0px" width="1600px"
	 height="1600px" viewBox="0 0 1600 1600" enable-background="new 0 0 1600 1600" xml:space="preserve">
<g id="Layer_2" display="none">
	<circle display="inline" fill="#E6E7E8" stroke="#C5C7C9" stroke-width="20" cx="800" cy="799.998" r="666.319"/>
</g>
<g id="Layer_4">
</g>
<g id="Layer_1_copy">
</g>
<g id="Layer_1">
	<g>
		<polygon fill="#00ADEE" points="-436.753,825.744 -326.67,635.075 -216.588,825.744 		"/>
	</g>
	<g>
		<polygon fill="none" stroke="#000000" stroke-width="60" points="799.986,578.872 542.929,578.872 286.244,1023.467 
			414.773,1246.084 928.142,1246.084 1056.673,1023.465 		"/>
	</g>
	<g>
		<polygon fill="none" stroke="#000000" stroke-width="60" points="1057.069,578.894 800.012,578.894 543.327,1023.488 
			671.857,1246.107 1185.225,1246.107 1313.756,1023.488 		"/>
	</g>
	<g>
		<polygon fill="none" stroke="#000000" stroke-width="60" points="928.365,801.533 671.309,801.533 414.62,1246.128 
			543.153,1468.748 1056.52,1468.748 1185.051,1246.124 		"/>
	</g>
	<g>
		<polygon fill="none" stroke="#000000" stroke-width="60" points="542.882,578.894 801.327,131.253 1059.771,578.894 		"/>
	</g>
	<g>
		<polygon fill="#3CA7C8" points="-658.105,566.757 -436.753,183.364 -215.401,566.757 		"/>
	</g>
</g>
</svg>
